<svg width="18" height="21" viewBox="0 0 18 21" fill="none" xmlns="http://www.w3.org/2000/svg">
<path fill-rule="evenodd" clip-rule="evenodd" d="M8.48616 21C19.4873 15.3051 20.2596 0 8.48616 0C-3.28728 0 -1.92345 15.661 8.48616 21ZM8.59436 13.1695C11.8035 13.1695 14.4049 10.6995 14.4049 7.65259C14.4049 4.60566 11.8035 2.13564 8.59436 2.13564C5.38527 2.13564 2.78379 4.60566 2.78379 7.65259C2.78379 10.6995 5.38527 13.1695 8.59436 13.1695ZM8.59436 10.881C6.71645 10.881 5.1941 9.43561 5.1941 7.65259C5.1941 5.86957 6.71645 4.42415 8.59436 4.42415C10.4723 4.42415 11.9946 5.86957 11.9946 7.65259C11.9946 9.43561 10.4723 10.881 8.59436 10.881Z" fill="white"/>
</svg>
